<?xml version="1.0" standalone="no"?><!DOCTYPE svg PUBLIC "-//W3C//DTD SVG 1.1//EN" "http://www.w3.org/Graphics/SVG/1.1/DTD/svg11.dtd"><svg t="1559968385738" class="icon" style="" viewBox="0 0 1024 1024" version="1.1" xmlns="http://www.w3.org/2000/svg" p-id="1093" xmlns:xlink="http://www.w3.org/1999/xlink" width="24" height="24"><defs><style type="text/css"></style></defs><path d="M477.847 297.532a45.538 45.532 0 1 0 91.076 0 45.538 45.532 0 1 0-91.076 0Z" fill="#9B97AD" p-id="1094"></path><path d="M375.086 555.889c7.958-51.633 16.687-86.225 26.188-103.779 31.047-57.359 63.219-83.045 72.984-84.259 19.666-2.445 43.069-2.934 54.806 0 13.615 3.403 22.953 10.546 28.013 21.428 4.705 47.263 11.83 76.758 21.374 88.485 26.427 32.47 66.07 43.328 77.455 43.328 0 11.383-5.76 30.101-5.76 30.101-16.886 0-74.649 0-105.9-50.268-1.757-2.826-4.15 13.93-7.176 50.268 40.49 39.301 66.655 71.19 78.493 95.665 11.838 24.475 17.744 71.176 17.718 140.103h-39.763c-2.772-37.657-7.794-66.716-15.067-87.177-7.273-20.46-28.656-47.225-64.15-80.293-13.563 32.18-28.743 62.534-45.538 91.064-16.796 28.53-38.389 53.998-64.778 76.406H364c33.161-47.43 56.697-84.282 70.609-110.555 13.91-26.273 23.801-52.423 29.67-78.449V438.402c-10.47 3.1-20.36 14.137-29.67 33.11-5.792 11.803-16 39.928-30.624 84.377h-28.899z" fill="#9B97AD" p-id="1095"></path></svg>