<?xml version="1.0" standalone="no"?><!DOCTYPE svg PUBLIC "-//W3C//DTD SVG 1.1//EN" "http://www.w3.org/Graphics/SVG/1.1/DTD/svg11.dtd"><svg t="1559968409539" class="icon" style="" viewBox="0 0 1024 1024" version="1.1" xmlns="http://www.w3.org/2000/svg" p-id="1336" xmlns:xlink="http://www.w3.org/1999/xlink" width="24" height="24"><defs><style type="text/css"></style></defs><path d="M662.5 379.5m-45.5 0a45.5 45.5 0 1 0 91 0 45.5 45.5 0 1 0-91 0Z" fill="#9B97AD" p-id="1337"></path><path d="M649.095 558.183l-8.829-65.656H532.663c-11.007-11.823-13.759-23.269-8.255-34.338-12.585-8.61-7.468-33.189 8.255-33.189 10.483 0 49.294 5.988 116.432 17.965h20.62c32.424-12.12 51.182-7.045 56.273 15.224 5.091 22.268 13.267 66.145 24.527 131.63 5.642 18.776-4.79 31.235-31.293 37.377-26.504 6.142-64.27 3.07-113.296-9.213l-64.822 37.59c-15.644 1.64-25.295-1.445-28.954-9.252-3.66-7.807-1.83-16.033 5.488-24.677-3.972-1.411-7.521-5.724-10.647-12.939-4.689-10.823-0.33-20.948 5.159-26.134 5.488-5.186 93.776-39.917 93.776-39.917l43.17 15.529zM267 674h491v17H267z" fill="#9B97AD" p-id="1338"></path></svg>