<?xml version="1.0" standalone="no"?><!DOCTYPE svg PUBLIC "-//W3C//DTD SVG 1.1//EN" "http://www.w3.org/Graphics/SVG/1.1/DTD/svg11.dtd"><svg t="1559968375870" class="icon" style="" viewBox="0 0 1024 1024" version="1.1" xmlns="http://www.w3.org/2000/svg" p-id="975" xmlns:xlink="http://www.w3.org/1999/xlink" width="24" height="24"><defs><style type="text/css"></style></defs><path d="M568.905 319.488a45.524 45.488 0 1 0 91.048 0 45.524 45.488 0 1 0-91.048 0Z" fill="#9B97AD" p-id="976"></path><path d="M395.92 448.522c23.202-28.56 42.39-42.839 57.565-42.839h61.976c-21.76 58.293-41.811 97.772-60.153 118.437-27.511 30.998-41.408 45.489-86.932 45.489-30.349 0-56.905-15.163-79.666-45.489L273 546.362c34.436 41.42 68.945 64.96 103.526 70.622 57.444 9.404 88.613-15.714 117.04-36.003 22.763 11.372 89.608 32.89 83.908 78.067-3.8 30.118-14.466 64.746-31.997 103.886h39.137c20.585-31.408 34.67-69.856 42.258-115.344 7.587-45.489-21.867-85.36-88.364-119.615l43.16-54.446c13.51 36.34 31.646 58.302 54.407 65.883 22.762 7.582 58.72-1.306 107.873-26.664l-11.381-22.744c-38.918 9.77-65.965 10.865-81.14 3.284-22.761-11.373-16.99-40.882-34.308-70.784-19.122-33.016-32.505-45.917-53.253-58.247-20.75-12.331-102.757-18.055-137.014 5.941-22.838 15.998-40.237 38.546-52.196 67.645l21.264 10.68z" fill="#9B97AD" p-id="977"></path></svg>