<?xml version="1.0" standalone="no"?><!DOCTYPE svg PUBLIC "-//W3C//DTD SVG 1.1//EN" "http://www.w3.org/Graphics/SVG/1.1/DTD/svg11.dtd"><svg t="1559968360678" class="icon" style="" viewBox="0 0 1024 1024" version="1.1" xmlns="http://www.w3.org/2000/svg" p-id="856" xmlns:xlink="http://www.w3.org/1999/xlink" width="24" height="24"><defs><style type="text/css"></style></defs><path d="M546.143 352.556a45.524 45.556 0 1 0 91.048 0 45.524 45.556 0 1 0-91.048 0Z" fill="#9B97AD" p-id="857"></path><path d="M654.262 717c-53.427 0-96.738-43.341-96.738-96.806 0-53.464 43.31-96.805 96.738-96.805 53.427 0 96.738 43.341 96.738 96.805C751 673.66 707.689 717 654.262 717z m0-34.167c34.57 0 62.595-28.044 62.595-62.639 0-34.594-28.025-62.638-62.595-62.638s-62.595 28.044-62.595 62.638c0 34.595 28.025 62.64 62.595 62.64zM369.738 717C316.311 717 273 673.659 273 620.194c0-53.464 43.311-96.805 96.738-96.805s96.738 43.341 96.738 96.805c0 53.465-43.31 96.806-96.738 96.806z m0-34.167c34.57 0 62.595-28.044 62.595-62.639 0-34.594-28.025-62.638-62.595-62.638s-62.595 28.044-62.595 62.638c0 34.595 28.025 62.64 62.595 62.64z" fill="#9B97AD" p-id="858"></path><path d="M540.203 445.814l40.99 45.965h78.98c9.251-2.655 13.877-8.362 13.877-17.12 0-8.76-4.626-13.766-13.877-15.02h-63.138l-56.832-65.548c-5.608-4.912-10.805-7.369-15.591-7.369-4.787 0-9.331 2.457-13.634 7.37l-94.276 97.687c-4.754 4.241-7.13 8.76-7.13 13.56 0 4.8 2.376 9 7.13 12.602l76.1 53.547-4.834 84.681c3.1 11.487 9.742 17.23 19.925 17.23s16.737-4.962 19.663-14.885l7.292-93.187c0.317-4.158 0.317-6.939 0-8.342-0.318-1.403-1.337-3.123-3.057-5.16l-52.509-39.349 60.92-66.662z" fill="#9B97AD" p-id="859"></path></svg>